<svg data-name="Layer" xmlns="http://www.w3.org/2000/svg" style="background-color:#FFF" stroke="black" fill="none" stroke-width="1">
 <!-- style="background-color:#FFF" stroke="black" fill="none" stroke-width="1"  -->
 <!-- BUG: cleanupIds svgo plugin drops image if <style> is empty -->
  <!-- <defs>
    <style>
      .path {
        background-color: transparent
        stroke: black;
        fill: none;
        stroke-width: 1;
      }
    </style>
  </defs> -->
 <!-- d4 -->
  <symbol id="d4" viewBox="0.5 9.7 155.13 133.58">
    <path d="M72.12, 12.23L3, 140.75"/>
    <path d="M140.81, 140.75L3, 140.75"/>
    <path d="M72.12, 12.23L142.32, 140.75"/>
    <path d="M72.12, 12.23L153.12, 95.39"/>
    <path d="M153.12, 95.39L140.81, 140.75"/>
  </symbol>
  <!-- d6 -->
  <symbol id="d6" viewBox="338.52 8.62 131.38 135.73">
    <path d="M341.04, 32.75L341.04, 140.75"/>
    <path d="M446.88, 32.75L446.88, 141.83"/>
    <path d="M446.88, 32.75L341.04, 32.75"/>
    <path d="M446.88, 140.75L341.04, 140.75"/>
    <path d="M341.04, 32.75L362.64, 11.15"/>
    <path d="M446.88, 32.75L467.4, 12.23"/>
    <path d="M467.4, 11.15L362.64, 11.15"/>
    <path d="M446.88, 140.75L467.4, 118.07"/>
    <path d="M467.4, 12.23L467.4, 118.07"/>
  </symbol>
  <!-- d8 -->
  <symbol id="d8" viewBox="696.77 2.63 120.6 138.45">
    <path d="M757.07, 5.14L814.86, 38.5L814.86, 105.22L757.07, 138.58L699.29, 105.22L699.29, 38.5L757.07, 5.14"/>
    <path d="M757.07, 5.14L699.29, 105.22"/>
    <path d="M814.86, 105.22L757.07, 5.14"/>
    <path d="M814.86, 105.22L699.29, 105.22"/>
  </symbol>
  <!-- d10 -->
  <symbol id="d10" viewBox="1041.25 1.4 134.63 143.42">
    <path d="M1110, 3.93L1043.76, 55.69"/>
    <path d="M1043.76, 83.85L1108.56, 142.3"/>
    <path d="M1110, 3.93L1173.36, 56.38"/>
    <path d="M1108.56, 142.3L1171.92, 86.15"/>
    <path d="M1043.76, 55.69L1043.76, 83.85"/>
    <path d="M1173.36, 56.38L1173.36, 83.85"/>
    <path d="M1060.68, 83.85L1043.76, 83.85"/>
    <path d="M1156.44, 83.85L1173.36, 83.85"/>
    <path d="M1108.56, 142.3L1108.56, 106.98"/>
    <path d="M1110, 3.93L1060.68, 83.85"/>
    <path d="M1156.44, 83.85L1108.56, 106.98"/>
    <path d="M1110, 3.93L1156.44, 83.85"/>
    <path d="M1060.68, 83.85L1108.56, 106.98"/>
  </symbol>
  <!-- d12 -->
  <symbol id="d12" viewBox="1397.18 1.47 137.67 143.32">
    <path d="M1464.38, 26.38L1506.51, 56.98L1490.42, 106.51L1438.35, 106.51L1422.25, 56.98L1464.38, 26.38"/>
    <path d="M1464.22, 3.97L1505.2, 16.12L1531.22, 50.04L1532.33, 92.77L1508.11, 128L1467.81, 142.26L1426.83, 130.11L1400.81, 96.19L1399.7, 53.46L1423.92, 18.23L1464.22, 3.97"/>
    <path d="M1464.38, 26.38L1464.38, 3.97"/>
    <path d="M1422.25, 56.98L1399.7, 53.46"/>
    <path d="M1438.35, 106.51L1426.83, 130.11"/>
    <path d="M1490.42, 106.51L1508.11, 128"/>
    <path d="M1506.51, 56.98L1529.32, 47.55"/>
  </symbol>
  <!-- d20 -->
  <symbol id="d20" viewBox="1769.43 0.95 124.77 143.3">
    <path d="M1831.81, 3.46L1891.68, 38.03L1891.68, 107.16L1831.81, 141.72L1771.94, 107.16L1771.94, 38.03L1831.81, 3.46"/>
    <path d="M1831.81, 31.39L1867.47, 93.14L1796.16, 93.14L1831.81, 31.39"/>
    <path d="M1771.95, 38.03L1831.81, 31.39"/>
    <path d="M1831.81, 3.46L1831.81, 31.39"/>
    <path d="M1891.68, 38.03L1831.81, 31.39"/>
    <path d="M1771.95, 38.03L1796.16, 93.14"/>
    <path d="M1831.81, 141.72L1796.16, 93.14"/>
    <path d="M1771.95, 107.16L1796.16, 93.14"/>
    <path d="M1891.68, 38.03L1867.47, 93.14"/>
    <path d="M1891.68, 107.16L1867.47, 93.14"/>
    <path d="M1831.81, 141.72L1867.47, 93.14"/>
  </symbol>
</svg>